<svg width="184" height="49" viewBox="0 0 184 49" fill="none" xmlns="http://www.w3.org/2000/svg">
<g clip-path="url(#clip0_376_2149)">
<path d="M34.6597 8.04147L17.5811 18.1712V0.248596L34.6597 8.04147Z" fill="#069B96"/>
<path d="M17.5811 0.248596V18.1737L0.5 8.04147L17.5811 0.248596Z" fill="#70C282"/>
<path d="M34.6695 11.2897L17.5787 21.417L17.3699 21.6753V29.8167L17.5787 30.4332H17.5811V36.4764V48.2486L34.6549 32.6044L34.6695 32.6019V11.2897Z" fill="#056D69"/>
<path d="M17.5811 30.3235V21.417L0.5 11.2897L0.502428 11.2922L0.5 11.2897V32.6019L7.11149 38.6574L17.5811 48.2486V30.3235Z" fill="#4DBA7A"/>
<path d="M17.5787 30.4332V21.417L0.5 11.2897L17.5787 30.4332Z" fill="#7AC799"/>
<path d="M17.5786 21.417V30.4332L34.6694 11.2897L17.5786 21.417Z" fill="#00A69F"/>
</g>
<path d="M53.3014 19.4886C53.3014 24.5006 65.3694 21.2526 65.3694 28.6446C65.3694 32.8166 63.1854 34.6086 58.0334 34.6086C52.8814 34.6086 50.6694 32.7606 50.6694 28.4486H52.9374C52.9374 31.5006 54.3934 32.7326 58.0334 32.7326C61.6174 32.7326 63.0174 31.6406 63.0174 29.0086C63.0174 23.4926 50.9494 26.8526 50.9494 19.8526C50.9494 15.6806 53.0774 13.8886 58.0334 13.8886C62.9894 13.8886 65.0894 15.7366 65.0894 20.0486H62.8494C62.8494 17.0246 61.4494 15.7646 58.0334 15.7646C54.6454 15.7646 53.3014 16.8286 53.3014 19.4886Z" fill="white"/>
<path d="M69.2763 34.0486V14.4486H71.5163V21.5606C72.4123 20.3286 73.8683 19.7686 75.9403 19.7686C79.6083 19.7686 81.1763 21.7846 81.1763 26.4886V34.0486H78.9363V26.4886C78.9363 23.0446 77.9283 21.6446 75.4083 21.6446C72.6363 21.6446 71.5163 23.0446 71.5163 26.4886V34.0486H69.2763Z" fill="white"/>
<path d="M87.8178 34.0486H85.5498V20.0486H87.8178V34.0486ZM86.6698 14.2526C87.7898 14.2526 88.2658 14.7286 88.2658 15.8206C88.2658 16.8846 87.7898 17.3606 86.6698 17.3606C85.5778 17.3606 85.1018 16.8846 85.1018 15.8206C85.1018 14.7286 85.5778 14.2526 86.6698 14.2526Z" fill="white"/>
<path d="M93.8918 28.2806C94.1438 31.3046 95.3758 32.6766 98.1478 32.6766C100.304 32.6766 101.368 31.9206 101.956 29.8766H104.084C103.412 32.9846 101.62 34.3286 98.1478 34.3286C93.5838 34.3286 91.6238 32.1446 91.6238 27.0486C91.6238 21.9526 93.5558 19.7686 98.1478 19.7686C102.684 19.7686 104.644 22.0366 104.644 27.3566V28.2806H93.8918ZM102.404 26.7686C102.404 22.9326 101.116 21.4206 98.1198 21.4206C95.1518 21.4206 93.8358 22.9886 93.8358 26.7686H102.404Z" fill="white"/>
<path d="M108.296 34.0486V14.4486H110.536V34.0486H108.296Z" fill="white"/>
<path d="M120.146 34.3286C115.946 34.3286 114.182 32.1166 114.182 27.0206C114.182 21.9246 115.974 19.7406 120.174 19.7406C122.442 19.7406 124.01 20.3846 124.962 21.7846V14.4206H127.202V34.0206H125.382L125.046 32.1166C124.094 33.6286 122.498 34.3286 120.146 34.3286ZM120.706 32.4246C123.674 32.4246 124.962 30.8006 124.962 27.0206C124.962 23.2406 123.674 21.6166 120.706 21.6166C117.71 21.6166 116.422 23.2406 116.422 27.0206C116.422 30.8006 117.71 32.4246 120.706 32.4246Z" fill="white"/>
<path d="M133.103 28.2806C133.355 31.3046 134.587 32.6766 137.359 32.6766C139.515 32.6766 140.579 31.9206 141.167 29.8766H143.295C142.623 32.9846 140.831 34.3286 137.359 34.3286C132.795 34.3286 130.835 32.1446 130.835 27.0486C130.835 21.9526 132.767 19.7686 137.359 19.7686C141.895 19.7686 143.855 22.0366 143.855 27.3566V28.2806H133.103ZM141.615 26.7686C141.615 22.9326 140.327 21.4206 137.331 21.4206C134.363 21.4206 133.047 22.9886 133.047 26.7686H141.615Z" fill="white"/>
<path d="M156.719 32.3966C155.823 33.7126 154.339 34.3286 152.183 34.3286C148.515 34.3286 146.947 32.3126 146.947 27.6086V20.0486H149.187V27.6086C149.187 31.0526 150.223 32.4526 152.715 32.4526C155.431 32.4526 156.607 30.9966 156.607 27.6086V20.0486H158.847V34.0486H157.027L156.719 32.3966Z" fill="white"/>
<path d="M169.324 21.6446C166.888 21.6446 165.852 23.0726 165.852 26.4886V34.0486H163.612V20.0486H165.432L165.768 22.0646C166.524 20.4966 167.868 19.7686 169.912 19.7686C172.012 19.7686 173.356 20.6086 174.056 22.4566C174.812 20.6086 176.268 19.7686 178.592 19.7686C181.952 19.7686 183.38 21.7846 183.38 26.4886V34.0486H181.14V26.4886C181.14 23.1006 180.216 21.6446 178.06 21.6446C175.652 21.6446 174.644 23.0726 174.644 26.4886V34.0486H172.376V26.4886C172.376 23.0446 171.508 21.6446 169.324 21.6446Z" fill="white"/>
<defs>
<clipPath id="clip0_376_2149">
<rect width="34.1695" height="48" fill="white" transform="translate(0.5 0.248596)"/>
</clipPath>
</defs>
</svg>
