<svg width="47" height="153" viewBox="0 0 47 153" fill="none" xmlns="http://www.w3.org/2000/svg">
<path d="M41 0.226532L46.7735 6.00003L41 11.7735L35.2265 6.00003L41 0.226532ZM6.05179 67.4071L6.73605 68.1363L6.05179 67.4071ZM41 27.6866H42H41ZM35.9482 39.3544L35.264 38.6252L35.9482 39.3544ZM40 27.6866L40 6.00003H42L42 27.6866H40ZM0 153L0 79.0749H2L2 153H0ZM5.36753 66.6779L35.264 38.6252L36.6325 40.0836L6.73605 68.1363L5.36753 66.6779ZM0 79.0749C0 74.3785 1.94279 69.8914 5.36753 66.6779L6.73605 68.1363C3.71423 70.9718 2 74.931 2 79.0749H0ZM42 27.6866C42 32.383 40.0572 36.8701 36.6325 40.0836L35.264 38.6252C38.2858 35.7897 40 31.8305 40 27.6866H42Z" fill="url(#paint0_linear_1841_101278)"/>
<defs>
<linearGradient id="paint0_linear_1841_101278" x1="8.02427" y1="24.8376" x2="8.02427" y2="92.2308" gradientUnits="userSpaceOnUse">
<stop stop-color="#00FF97"/>
<stop offset="1" stop-color="#009B95"/>
</linearGradient>
</defs>
</svg>
